<?xml version="1.0" standalone="no"?>
<svg xmlns:xlink="http://www.w3.org/1999/xlink" id="wave" style="transform:rotate(0deg); transition: 0.3s" viewBox="0 0 1440 100" version="1.1" xmlns="http://www.w3.org/2000/svg"><defs><linearGradient id="sw-gradient-0" x1="0" x2="0" y1="1" y2="0"><stop stop-color="rgba(2.694, 2.544, 2.496, 1)" offset="0%"/><stop stop-color="rgba(7.248, 7.158, 6.959, 1)" offset="100%"/></linearGradient></defs><path style="transform:translate(0, 0px); opacity:1" fill="url(#sw-gradient-0)" d="M0,60L10.9,61.7C21.8,63,44,67,65,71.7C87.3,77,109,83,131,75C152.7,67,175,43,196,40C218.2,37,240,53,262,60C283.6,67,305,63,327,66.7C349.1,70,371,80,393,78.3C414.5,77,436,63,458,60C480,57,502,63,524,55C545.5,47,567,23,589,11.7C610.9,0,633,0,655,3.3C676.4,7,698,13,720,15C741.8,17,764,13,785,15C807.3,17,829,23,851,23.3C872.7,23,895,17,916,26.7C938.2,37,960,63,982,68.3C1003.6,73,1025,57,1047,55C1069.1,53,1091,67,1113,70C1134.5,73,1156,67,1178,56.7C1200,47,1222,33,1244,23.3C1265.5,13,1287,7,1309,13.3C1330.9,20,1353,40,1375,50C1396.4,60,1418,60,1440,61.7C1461.8,63,1484,67,1505,56.7C1527.3,47,1549,23,1560,11.7L1570.9,0L1570.9,100L1560,100C1549.1,100,1527,100,1505,100C1483.6,100,1462,100,1440,100C1418.2,100,1396,100,1375,100C1352.7,100,1331,100,1309,100C1287.3,100,1265,100,1244,100C1221.8,100,1200,100,1178,100C1156.4,100,1135,100,1113,100C1090.9,100,1069,100,1047,100C1025.5,100,1004,100,982,100C960,100,938,100,916,100C894.5,100,873,100,851,100C829.1,100,807,100,785,100C763.6,100,742,100,720,100C698.2,100,676,100,655,100C632.7,100,611,100,589,100C567.3,100,545,100,524,100C501.8,100,480,100,458,100C436.4,100,415,100,393,100C370.9,100,349,100,327,100C305.5,100,284,100,262,100C240,100,218,100,196,100C174.5,100,153,100,131,100C109.1,100,87,100,65,100C43.6,100,22,100,11,100L0,100Z"/></svg>